<?xml version="1.0" encoding="UTF-8"?>
<svg xmlns="http://www.w3.org/2000/svg" width="1250" height="1000" viewBox="0 0 1000 1000" xmlns:xlink="http://www.w3.org/1999/xlink">
  
  <style>
    .gear { stroke:#000000; stroke-width:50px; fill:none; stroke-linejoin:round; stroke-linecap:round; }
    .gearfill { stroke:none; fill:currentColor; }
  </style>

  <defs>

  <!-- Foundation for 9-tipped gear created by: Tseytisi, 2025 -->
    <!-- Massive respect from UnityWall-->

    <symbol id="gearBase" viewBox="-50 -120 1000 1000" overflow="visible">
      <g class="gear">
        <g id="gearfill100" class="gearfill">
          <path d="
                M 495 175
                h 45
                l 50 -80
                l 52 19
                L 540 415
                L 495 400
                Z
                " />
          <path d="
                M 505 175
                h -45
                l -50 -80
                l -52 19
                L 460 415
                L 505 400
                Z
                " />
        </g>
        <use xlink:href="#gearfill100" transform="rotate(0 500 500)" />
        <use xlink:href="#gearfill100" transform="rotate(40 500 500)" />
        <use xlink:href="#gearfill100" transform="rotate(80 500 500)" />
        <use xlink:href="#gearfill100" transform="rotate(120 500 500)" />
        <use xlink:href="#gearfill100" transform="rotate(160 500 500)" />
        <use xlink:href="#gearfill100" transform="rotate(200 500 500)" />
        <use xlink:href="#gearfill100" transform="rotate(240 500 500)" />
        <use xlink:href="#gearfill100" transform="rotate(280 500 500)" />
        <use xlink:href="#gearfill100" transform="rotate(320 500 500)" />
        <g id="gearpart">
          <path title="right" d="
                M 495 175
                h 45
                l 50 -80
                l 52 19
                " />
          <path title="lef" d="
                M 505 175
                h -45
                l -50 -80
                l -52 19
                " />
        </g>
        <use xlink:href="#gearpart" transform="rotate(0 500 500)" />
        <use xlink:href="#gearpart" transform="rotate(40 500 500)" />
        <use xlink:href="#gearpart" transform="rotate(80 500 500)" />
        <use xlink:href="#gearpart" transform="rotate(120 500 500)" />
        <use xlink:href="#gearpart" transform="rotate(160 500 500)" />
        <use xlink:href="#gearpart" transform="rotate(200 500 500)" />
        <use xlink:href="#gearpart" transform="rotate(240 500 500)" />
        <use xlink:href="#gearpart" transform="rotate(280 500 500)" />
        <use xlink:href="#gearpart" transform="rotate(320 500 500)" />

        <circle cx="500" cy="500" r="100" />
      </g>
    </symbol>
  </defs>

  <g transform="translate(330 330) scale(1)">
    <use xlink:href="#gearBase" x="-500" y="-500" color="#B7732B" />
  </g>

  <g transform="translate(680 620) scale(0.6)">
    <use xlink:href="#gearBase" x="-500" y="-500" color="#F7B923" />
  </g>

</svg>
